<svg xmlns="http://www.w3.org/2000/svg" xmlns:se="http://svg-edit.googlecode.com" xmlns:xlink="http://www.w3.org/1999/xlink" xmlns:dc="http://purl.org/dc/elements/1.1/" xmlns:cc="http://creativecommons.org/ns#" xmlns:rdf="http://www.w3.org/1999/02/22-rdf-syntax-ns#" width="777" height="480"><title>my vector image</title><g class="currentLayer"><title>Layer 1</title><path fill="#78f9a0" fill-opacity="1" stroke="#222" stroke-opacity="1" stroke-width="2" stroke-dasharray="none" stroke-linejoin="round" stroke-linecap="butt" fill-rule="nonzero" opacity="1" id="svg_9" d="M475.66613978552544,453.1578892929357" color="rgb(120, 249, 160)"/><path fill="#78f9a0" fill-opacity="1" stroke="#78f9a0" stroke-opacity="1" stroke-width="2" stroke-dasharray="none" stroke-linejoin="round" stroke-linecap="butt" fill-rule="nonzero" opacity="1" id="svg_11" d="M660.7086954116821,399.7745246887207 L702.6154947280884,350.3756904602051 L675.3161783218384,355.6389350891113 L711.6508340835571,318.7967109680176 L684.3430337905884,325.5639533996582 L718.1553506851196,270.45048904418945 L756.2268838882446,328.5710639953613 L732.8173990249634,322.5561408996582 L766.7572793960571,355.6388740539551 L738.8324747085571,351.1277961730957 L784.1012735366821,400.7516975402832 L750.8877725601196,395.4886054992676 L804.9254312515259,446.3912239074707 L754.3844766616821,435.86479568481445 L804.4440469741821,482.70695877075195 L639.6006631851196,480.45170974731445 L698.4967813491821,428.5710029602051 L650.1022500991821,437.36833572387695 L687.5523843765259,397.7443428039551" color="rgb(120, 249, 160)"/><path fill="#78f9a0" fill-opacity="1" stroke="#78f9a0" stroke-opacity="1" stroke-width="2" stroke-dasharray="none" stroke-linejoin="round" stroke-linecap="butt" fill-rule="nonzero" opacity="1" d="M541.2318115234375,431.66752433776855 L580.9828186035156,397.35502433776855 L550.9962768554688,398.0318126678467 L594.5298156738281,358.7787609100342 L561.8285217285156,366.2236156463623 L607.8290710449219,319.3227062225342 L636.0066528320312,372.31425285339355 L605.4606323242188,363.51624870300293 L641.4244079589844,393.2942638397217 L610.1980895996094,389.23380851745605 L658.3894653320312,425.10246086120605 L621.7258605957031,429.1633129119873 L672.39599609375,472.2740001678467 L632.99462890625,473.62760734558105 L690.9125061035156,509.02274894714355 L521.5555725097656,505.63920402526855 L565.7702026367188,468.4158763885498 L526.2707214355469,471.5970287322998 L583.6671447753906,430.5169200897217" id="svg_1" color="rgb(120, 249, 160)"/><path fill="#78f9a0" fill-opacity="1" stroke="#78f9a0" stroke-opacity="1" stroke-width="2" stroke-dasharray="none" stroke-linejoin="round" stroke-linecap="butt" fill-rule="nonzero" opacity="1" d="M402.13409,469.26151L441.88507,431.18954L411.14667,434.8739L453.17639,391.86139L422.73083,403.8176L456.70111,357.66858L496.90894,406.14877L464.85913,393.59131L503.83051,432.39203L471.85226,428.33157L518.53986,466.4559L475.10922,461.49405L533.29828,509.86798L493.14502,508.21402L551.81482,546.6167L382.45782,543.23315L426.67249,506.00986L387.17303,509.19101L440.05811,461.34387" id="svg_2" color="rgb(120, 249, 160)"/><path fill="#78f9a0" fill-opacity="1" stroke="#78f9a0" stroke-opacity="1" stroke-width="2" stroke-dasharray="none" stroke-linejoin="round" stroke-linecap="butt" fill-rule="nonzero" opacity="1" id="svg_13" d="M457.62102758583535,399.0225526938654" color="rgb(120, 249, 160)"/></g></svg>