<svg xmlns="http://www.w3.org/2000/svg" xmlns:se="http://svg-edit.googlecode.com" xmlns:xlink="http://www.w3.org/1999/xlink" xmlns:dc="http://purl.org/dc/elements/1.1/" xmlns:cc="http://creativecommons.org/ns#" xmlns:rdf="http://www.w3.org/1999/02/22-rdf-syntax-ns#" xmlns:inkscape="http://www.inkscape.org/namespaces/inkscape" width="627.5563837961777" height="197.5037593499742" style="">
	<title>
		my vector image
	</title>
	<!-- Created with Vector Paint - http://www.vectorpaint.yaks.com/ https://chrome.google.com/webstore/detail/hnbpdiengicdefcjecjbnjnoifekhgdo -->
	<g class="currentLayer" style="">
		<title>
			Layer 1
		</title>
		<path fill="#78f9a0" fill-opacity="1" stroke="#222222" stroke-opacity="1" stroke-width="2" stroke-dasharray="none" stroke-linejoin="round" stroke-linecap="butt" stroke-dashoffset="" fill-rule="nonzero" opacity="1" marker-start="" marker-mid="" marker-end="" id="svg_9" d="M476.6661376953125,454.15789794921875 " style="color: rgb(120, 249, 160);" class="" />
		<path fill="#78f9a0" fill-opacity="1" stroke="#78f9a0" stroke-opacity="1" stroke-width="2" stroke-dasharray="none" stroke-linejoin="round" stroke-linecap="butt" stroke-dashoffset="" fill-rule="nonzero" opacity="1" marker-start="" marker-mid="" marker-end="" id="svg_11" d="M534.6410064697266,130.8497314453125 L576.5478057861328,81.45089721679688 L549.2484893798828,86.71414184570312 L585.5831451416016,49.87192153930664 L558.2753448486328,56.63916015625 L592.0876617431641,1.5256999731063843 L630.1591949462891,59.646270751953125 L606.7497100830078,53.631351470947266 L640.6895904541016,86.71408081054688 L612.7647857666016,82.2030029296875 L658.0335845947266,131.826904296875 L624.8200836181641,126.56381225585938 L678.8577423095703,177.4664306640625 L628.3167877197266,166.94000244140625 L651.3086090087891,197.9927520751953 L513.5329742431641,211.52691650390625 L572.4290924072266,159.64620971679688 L524.0345611572266,168.44354248046875 L561.4846954345703,128.81954956054688 " style="color: rgb(120, 249, 160);" class="" transform="" />
		<path fill="#78f9a0" fill-opacity="1" stroke="#78f9a0" stroke-opacity="1" stroke-width="2" stroke-dasharray="none" stroke-linejoin="round" stroke-linecap="butt" stroke-dashoffset="" fill-rule="nonzero" opacity="1" marker-start="" marker-mid="" marker-end="" d="M412.7181701660156,141.86548042297363 L447.52777099609375,111.63293647766113 L421.2688293457031,112.22924995422363 L459.3907165527344,77.64360237121582 L430.7545471191406,84.20322608947754 L471.03680419921875,42.87909126281738 L495.711669921875,89.56965065002441 L468.9627990722656,81.81777381896973 L500.4559326171875,108.05501747131348 L473.1113586425781,104.47737312316895 L515.3120727539062,136.08104133605957 L483.2060852050781,139.65904426574707 L527.5774536132812,177.64363288879395 L493.07403564453125,178.83629035949707 L543.792236328125,210.02275276184082 L395.4878845214844,207.0415210723877 L434.20623779296875,174.24424934387207 L399.6169128417969,177.04715156555176 L449.87847900390625,140.8517017364502 " style="color: rgb(120, 249, 160);" class="" id="svg_1" transform="" />
		<path fill="#78f9a0" fill-opacity="1" stroke="#78f9a0" stroke-opacity="1" stroke-width="2" stroke-dasharray="none" stroke-linejoin="round" stroke-linecap="butt" stroke-dashoffset="" fill-rule="nonzero" opacity="1" marker-start="" marker-mid="" marker-end="" d="M297.53584337234497,171.119384765625 L335.6985020637512,135.31991577148438 L306.1883397102356,138.78436279296875 L346.5386815071106,98.33924865722656 L317.30964708328247,109.581787109375 L349.92256212234497,66.18739318847656 L388.5238194465637,111.7738265991211 L357.75459337234497,99.96591186523438 L395.1688084602356,136.45062255859375 L364.46833848953247,132.63253784179688 L409.29045152664185,168.4812469482422 L367.59516954421997,163.81556701660156 L423.45918321609497,209.30209350585938 L384.9102940559387,207.74685668945312 L441.23588609695435,243.85731506347656 L278.6457676887512,240.6757354736328 L321.09379625320435,205.67425537109375 L283.17256212234497,208.66552734375 L333.9445652961731,163.6743621826172 " style="color: rgb(120, 249, 160);" class="selected" id="svg_2" transform="" />
		<path fill="#78f9a0" fill-opacity="1" stroke="#78f9a0" stroke-opacity="1" stroke-width="2" stroke-dasharray="none" stroke-linejoin="round" stroke-linecap="butt" stroke-dashoffset="" fill-rule="nonzero" opacity="1" marker-start="" marker-mid="" marker-end="" d="M143.7103,160.37762L163.00316,141.94244L145.63821,145.7612L167.82784,123.63012L153.2803,129.39729L171.64159,105.26779L189.5912,128.67368L174.74281,125.28944L190.24104,143.33038L175.80786,140.85654L196.91083,160.08792L176.4303,157.1503L202.44772,182.80919L184.13678,180.80432L209.20583,203.25583L142.22586,200.74567L158.81067,175.43948L138.47142,179.38394L161.83792,159.38071" style="color: rgb(120, 249, 160);" class="" id="svg_4" />
		<path fill="#78f9a0" fill-opacity="1" stroke="#78f9a0" stroke-opacity="1" stroke-width="2" stroke-dasharray="none" stroke-linejoin="round" stroke-linecap="butt" stroke-dashoffset="" fill-rule="nonzero" opacity="1" marker-start="" marker-mid="" marker-end="" d="M188.84837,157.47958L236.86998,125.42263L194.10159,135.12201L239.89066,90.60574L209.44513,97.29881L235.14473,51.14978L282.87131,91.35934L255.70004,91.12976L310.84586,137.1514L261.57407,127.07593L305.25415,159.93712L260.31976,151.96776L320.01257,203.3492L277.60361,197.93585L338.52911,240.09792L169.1721,236.71437L213.38678,199.49107L180.65421,200.4166L226.02054,157.08072" style="color: rgb(120, 249, 160);" class="" id="svg_3" />
		<path fill="#78f9a0" fill-opacity="1" stroke="#78f9a0" stroke-opacity="1" stroke-width="2" stroke-dasharray="none" stroke-linejoin="round" stroke-linecap="butt" stroke-dashoffset="" fill-rule="nonzero" opacity="1" marker-start="" marker-mid="" marker-end="" id="svg_13" d="M458.62103271484375,400.0225524902344 " style="color: rgb(120, 249, 160);" class="" />
	</g>
</svg>
