<svg xmlns="http://www.w3.org/2000/svg" xmlns:se="http://svg-edit.googlecode.com" xmlns:xlink="http://www.w3.org/1999/xlink" xmlns:dc="http://purl.org/dc/elements/1.1/" xmlns:cc="http://creativecommons.org/ns#" xmlns:rdf="http://www.w3.org/1999/02/22-rdf-syntax-ns#" xmlns:inkscape="http://www.inkscape.org/namespaces/inkscape" width="627.5563837961777" height="197.5037593499742" style="">
	<title>
		my vector image
	</title>
	<!-- Created with Vector Paint - http://www.vectorpaint.yaks.com/ https://chrome.google.com/webstore/detail/hnbpdiengicdefcjecjbnjnoifekhgdo -->
	<g class="currentLayer" style="">
		<title>
			Layer 1
		</title>
		<path fill="#78f9a0" fill-opacity="1" stroke="#222222" stroke-opacity="1" stroke-width="2" stroke-dasharray="none" stroke-linejoin="round" stroke-linecap="butt" stroke-dashoffset="" fill-rule="nonzero" opacity="1" marker-start="" marker-mid="" marker-end="" id="svg_9" d="M476.6661376953125,454.15789794921875 " style="color: rgb(120, 249, 160);" class="" />
		<path fill="#78f9a0" fill-opacity="1" stroke="#78f9a0" stroke-opacity="1" stroke-width="2" stroke-dasharray="none" stroke-linejoin="round" stroke-linecap="butt" stroke-dashoffset="" fill-rule="nonzero" opacity="1" marker-start="" marker-mid="" marker-end="" id="svg_11" d="M534.6410064697266,130.8497314453125 L576.5478057861328,81.45089721679688 L549.2484893798828,86.71414184570312 L585.5831451416016,49.87192153930664 L558.2753448486328,56.63916015625 L592.0876617431641,1.5256999731063843 L630.1591949462891,59.646270751953125 L606.7497100830078,53.631351470947266 L640.6895904541016,86.71408081054688 L612.7647857666016,82.2030029296875 L658.0335845947266,131.826904296875 L624.8200836181641,126.56381225585938 L678.8577423095703,177.4664306640625 L628.3167877197266,166.94000244140625 L651.3086090087891,197.9927520751953 L513.5329742431641,211.52691650390625 L572.4290924072266,159.64620971679688 L524.0345611572266,168.44354248046875 L561.4846954345703,128.81954956054688 " style="color: rgb(120, 249, 160);" class="" transform="" />
		<path fill="#78f9a0" fill-opacity="1" stroke="#78f9a0" stroke-opacity="1" stroke-width="2" stroke-dasharray="none" stroke-linejoin="round" stroke-linecap="butt" stroke-dashoffset="" fill-rule="nonzero" opacity="1" marker-start="" marker-mid="" marker-end="" d="M412.7181701660156,141.86548042297363 L447.52777099609375,111.63293647766113 L421.2688293457031,112.22924995422363 L459.3907165527344,77.64360237121582 L430.7545471191406,84.20322608947754 L471.03680419921875,42.87909126281738 L495.711669921875,89.56965065002441 L468.9627990722656,81.81777381896973 L500.4559326171875,108.05501747131348 L473.1113586425781,104.47737312316895 L515.3120727539062,136.08104133605957 L483.2060852050781,139.65904426574707 L527.5774536132812,177.64363288879395 L493.07403564453125,178.83629035949707 L543.792236328125,210.02275276184082 L395.4878845214844,207.0415210723877 L434.20623779296875,174.24424934387207 L399.6169128417969,177.04715156555176 L449.87847900390625,140.8517017364502 " style="color: rgb(120, 249, 160);" class="" id="svg_1" transform="" />
		<path fill="#78f9a0" fill-opacity="1" stroke="#78f9a0" stroke-opacity="1" stroke-width="2" stroke-dasharray="none" stroke-linejoin="round" stroke-linecap="butt" stroke-dashoffset="" fill-rule="nonzero" opacity="1" marker-start="" marker-mid="" marker-end="" d="M297.53584337234497,171.119384765625 L335.6985020637512,135.31991577148438 L306.1883397102356,138.78436279296875 L346.5386815071106,98.33924865722656 L317.30964708328247,109.581787109375 L349.92256212234497,66.18739318847656 L388.5238194465637,111.7738265991211 L357.75459337234497,99.96591186523438 L395.1688084602356,136.45062255859375 L364.46833848953247,132.63253784179688 L409.29045152664185,168.4812469482422 L367.59516954421997,163.81556701660156 L423.45918321609497,209.30209350585938 L384.9102940559387,207.74685668945312 L441.23588609695435,243.85731506347656 L278.6457676887512,240.6757354736328 L321.09379625320435,205.67425537109375 L283.17256212234497,208.66552734375 L333.9445652961731,163.6743621826172 " style="color: rgb(120, 249, 160);" class="" id="svg_2" />
		<path fill="#78f9a0" fill-opacity="1" stroke="#78f9a0" stroke-opacity="1" stroke-width="2" stroke-dasharray="none" stroke-linejoin="round" stroke-linecap="butt" stroke-dashoffset="" fill-rule="nonzero" opacity="1" marker-start="" marker-mid="" marker-end="" d="M240.55239868164062,162.48288750648499 L259.8452606201172,144.04770684242249 L242.48031616210938,147.8664629459381 L264.66993713378906,125.7353823184967 L250.12240600585938,131.50255608558655 L268.4836883544922,107.37305474281311 L286.4333038330078,130.7789385318756 L271.5849151611328,127.39469933509827 L287.08314514160156,145.43564629554749 L272.64996337890625,142.9617998600006 L293.7529296875,162.19318413734436 L273.27239990234375,159.25556206703186 L299.2898254394531,184.91445183753967 L280.9788818359375,182.90958428382874 L306.0479278564453,205.3610918521881 L239.06796264648438,202.85092949867249 L255.65277099609375,177.54474663734436 L235.3135223388672,181.48920464515686 L258.6800231933594,161.4859697818756 " style="color: rgb(120, 249, 160);" class="selected" id="svg_4" transform="" />
		<path fill="#78f9a0" fill-opacity="1" stroke="#78f9a0" stroke-opacity="1" stroke-width="2" stroke-dasharray="none" stroke-linejoin="round" stroke-linecap="butt" stroke-dashoffset="" fill-rule="nonzero" opacity="1" marker-start="" marker-mid="" marker-end="" id="svg_13" d="M458.62103271484375,400.0225524902344 " style="color: rgb(120, 249, 160);" class="" />
	</g>
</svg>
