<svg xmlns="http://www.w3.org/2000/svg" xmlns:se="http://svg-edit.googlecode.com" xmlns:xlink="http://www.w3.org/1999/xlink" xmlns:dc="http://purl.org/dc/elements/1.1/" xmlns:cc="http://creativecommons.org/ns#" xmlns:rdf="http://www.w3.org/1999/02/22-rdf-syntax-ns#" xmlns:inkscape="http://www.inkscape.org/namespaces/inkscape" width="450" height="196" style=""><rect id="backgroundrect" width="100%" height="100%" x="0" y="0" fill="none" stroke="none"/>
	<title>
		my vector image
	</title>
	<!-- Created with Vector Paint - http://www.vectorpaint.yaks.com/ https://chrome.google.com/webstore/detail/hnbpdiengicdefcjecjbnjnoifekhgdo -->
	<g class="currentLayer" style="">
		<title>
			Layer 1
		</title>
		<path fill="#78f9a0" fill-opacity="1" stroke="#222222" stroke-opacity="1" stroke-width="2" stroke-dasharray="none" stroke-linejoin="round" stroke-linecap="butt" stroke-dashoffset="" fill-rule="nonzero" opacity="1" marker-start="" marker-mid="" marker-end="" id="svg_9" d="M476.6661376953125,454.15789794921875 " style="color: rgb(120, 249, 160);" class=""/>
		<path fill="#78f9a0" fill-opacity="1" stroke="#78f9a0" stroke-opacity="1" stroke-width="2" stroke-dasharray="none" stroke-linejoin="round" stroke-linecap="butt" stroke-dashoffset="" fill-rule="nonzero" opacity="1" marker-start="" marker-mid="" marker-end="" id="svg_11" d="M303.06207,130.84973L344.96887,81.4509L317.66956,86.71414L354.00421,49.87192L326.69641,56.63916L360.50873,1.5257L398.58026,59.64627L375.17078,53.63135L409.11066,86.71408L381.18585,82.203L426.45465,131.8269L393.24115,126.56381L447.27881,177.46643L396.73785,166.94L419.72968,197.99275L281.95404,211.52692L340.85016,159.64621L292.45563,168.44354L329.90576,128.81955" style="color: rgb(120, 249, 160);" class=""/>
		<path fill="#78f9a0" fill-opacity="1" stroke="#78f9a0" stroke-opacity="1" stroke-width="2" stroke-dasharray="none" stroke-linejoin="round" stroke-linecap="butt" stroke-dashoffset="" fill-rule="nonzero" opacity="1" marker-start="" marker-mid="" marker-end="" d="M183.585205078125,162.74270629882812 L223.336181640625,128.43020629882812 L193.34967041015625,129.10699462890625 L236.8831787109375,89.85394287109375 L204.18194580078125,97.29879760742188 L250.1824951171875,50.39788818359375 L278.36004638671875,103.38943481445312 L247.81402587890625,94.5914306640625 L283.77783203125,124.36944580078125 L252.551513671875,120.30899047851562 L300.74285888671875,156.17764282226562 L264.0792236328125,160.23849487304688 L314.7493896484375,203.34918212890625 L275.3480224609375,204.70278930664062 L333.26593017578125,240.09793090820312 L163.908935546875,236.71438598632812 L208.12359619140625,199.49105834960938 L168.6241455078125,202.67221069335938 L226.02056884765625,161.59210205078125 " style="color: rgb(120, 249, 160);" class="" id="svg_1"/>
		<path fill="#78f9a0" fill-opacity="1" stroke="#78f9a0" stroke-opacity="1" stroke-width="2" stroke-dasharray="none" stroke-linejoin="round" stroke-linecap="butt" stroke-dashoffset="" fill-rule="nonzero" opacity="1" marker-start="" marker-mid="" marker-end="" d="M44.48748779296875,200.33670043945312 L84.23846435546875,162.26473999023438 L53.50006103515625,165.9490966796875 L95.52978515625,122.93658447265625 L65.084228515625,134.89279174804688 L99.05450439453125,88.7437744140625 L139.2623291015625,137.22396850585938 L107.2125244140625,124.66650390625 L146.18389892578125,163.46722412109375 L114.20565795898438,159.40676879882812 L160.89324951171875,197.53109741210938 L117.46261596679688,192.56924438476562 L175.65167236328125,240.94317626953125 L135.4984130859375,239.28921508789062 L194.168212890625,277.69189453125 L24.81121826171875,274.308349609375 L69.02587890625,237.08505249023438 L29.52642822265625,240.26620483398438 L82.4114990234375,192.4190673828125 " style="color: rgb(120, 249, 160);" class="" id="svg_2"/>
		<path fill="#78f9a0" fill-opacity="1" stroke="#78f9a0" stroke-opacity="1" stroke-width="2" stroke-dasharray="none" stroke-linejoin="round" stroke-linecap="butt" stroke-dashoffset="" fill-rule="nonzero" opacity="1" marker-start="" marker-mid="" marker-end="" id="svg_13" d="M458.62103271484375,400.0225524902344 " style="color: rgb(120, 249, 160);" class=""/>
	</g>
</svg>