<svg height="320pt" preserveAspectRatio="xMidYMid meet" viewBox="0 0 320 320" width="320pt" xmlns="http://www.w3.org/2000/svg"><g transform="matrix(.1 0 0 -.1 0 320)"><path d="m0 1601v-1601h1600 1600v1600 1600h-430-430l-336-322c-184-177-331-324-325-326 5-2 126 11 267 28 142 17 264 28 271 25 8-3 13-11 11-19s-176-190-387-405-381-391-379-391 118 45 258 100 258 100 263 100c4 0 10-6 13-14 5-14-665-934-691-949-10-5-131 134-425 489-323 391-408 499-400 509s19 11 33 6c12-5 128-50 257-101s242-94 250-97-141 151-332 343c-192 192-348 357-348 367 0 22-10 23 304-18 148-19 270-34 272-32 1 1-191 160-427 352-317 259-437 351-459 353l-30 3z"/><path d="m625 3180c83-10 169-21 193-24l43-6-29 25c-29 25-33 25-193 24l-164-1z"/><path d="m1715 3164c-35-31-37-34-15-29 14 3 86 18 160 34l135 29-120 1h-120z"/></g></svg>