<?xml version="1.0" standalone="no"?>
<!DOCTYPE svg PUBLIC "-//W3C//DTD SVG 20010904//EN"
 "http://www.w3.org/TR/2001/REC-SVG-20010904/DTD/svg10.dtd">
<svg version="1.0" xmlns="http://www.w3.org/2000/svg"
 width="320.000000pt" height="320.000000pt" viewBox="0 0 320.000000 320.000000"
 preserveAspectRatio="xMidYMid meet">
<metadata>
Created by potrace 1.14, written by Peter Selinger 2001-2017
</metadata>
<g transform="translate(0.000000,320.000000) scale(0.100000,-0.100000)"
fill="#000000" stroke="none">
<path d="M0 1601 l0 -1601 1600 0 1600 0 0 1600 0 1600 -430 0 -430 0 -336
-322 c-184 -177 -331 -324 -325 -326 5 -2 126 11 267 28 142 17 264 28 271 25
8 -3 13 -11 11 -19 -2 -8 -176 -190 -387 -405 -211 -215 -381 -391 -379 -391
2 0 118 45 258 100 140 55 258 100 263 100 4 0 10 -6 13 -14 5 -14 -665 -934
-691 -949 -10 -5 -131 134 -425 489 -323 391 -408 499 -400 509 8 10 19 11 33
6 12 -5 128 -50 257 -101 129 -51 242 -94 250 -97 8 -3 -141 151 -332 343
-192 192 -348 357 -348 367 0 22 -10 23 304 -18 148 -19 270 -34 272 -32 1 1
-191 160 -427 352 -317 259 -437 351 -459 353 l-30 3 0 -1600z"/>
<path d="M625 3180 c83 -10 169 -21 193 -24 l43 -6 -29 25 c-29 25 -33 25
-193 24 l-164 -1 150 -18z"/>
<path d="M1715 3164 c-35 -31 -37 -34 -15 -29 14 3 86 18 160 34 l135 29 -120
1 -120 0 -40 -35z"/>
</g>
</svg>
